<?xml version="1.0" encoding="iso-8859-1"?>
<svg height="800px" width="800px" version="1.1" id="Layer_1" xmlns="http://www.w3.org/2000/svg" xmlns:xlink="http://www.w3.org/1999/xlink" 
	 viewBox="0 0 512 512" xml:space="preserve">
<g transform="translate(1 1)">
	<path style="fill:#FD9808;" d="M501.857,72.143c0-27.429-22.857-45.714-50.286-45.714c-27.429,0-50.286,18.286-50.286,45.714
		v82.286h100.571V72.143z"/>
	<path style="fill:#FCC309;" d="M474.429,72.143c0-27.429-22.857-45.714-50.286-45.714c-27.429,0-50.286,18.286-50.286,45.714
		v82.286h100.571V72.143z"/>
	<path style="fill:#FFFFFF;" d="M300.714,437.857v-64h-192H53.857H8.143v64c0,26.514,20.114,43.886,45.714,45.714h292.571
		C320.829,481.743,300.714,464.371,300.714,437.857"/>
	<path style="fill:#FCC309;" d="M296.143,437.857v-64H125.171H76.714H35.571v64c0,26.514,18.286,43.886,41.143,45.714h260.571
		C314.429,481.743,296.143,464.371,296.143,437.857"/>
	<path style="fill:#FFDD09;" d="M173.629,26.429c-21.029,0-38.4,20.114-38.4,45.714l0.914,301.714h160.914v64
		c0,26.514,7.314,43.886,28.343,45.714c25.6,0,48.457-24.686,48.457-54.857V72.143c0-26.514,14.629-42.971,36.571-45.714l0,0
		H173.629z"/>
	<path style="fill:#FD9808;" d="M410.429,26.429L410.429,26.429c-21.029,2.743-36.571,19.2-36.571,45.714v356.571
		c0,25.6-16.457,47.543-37.486,53.029c2.743,0.914,6.4,0.914,10.057,1.829c30.171,0,54.857-24.686,54.857-54.857V72.143
		c0-26.514,20.114-42.971,45.714-45.714l0,0H410.429z"/>
	<path style="fill:#FFFFFF;" d="M173.629,26.429h-19.2c-25.6,0-45.714,20.114-45.714,45.714v301.714h27.429l-0.914-301.714
		C135.229,46.543,152.6,26.429,173.629,26.429"/>
	<path d="M511,163.571H392.143V72.143c0-31.086,25.6-54.857,59.429-54.857S511,41.057,511,72.143V163.571z M410.429,145.286h82.286
		V72.143c0-23.771-21.029-36.571-41.143-36.571s-41.143,12.8-41.143,36.571V145.286z"/>
	<path d="M346.429,492.714H53.857C20.943,489.971-1,468.029-1,437.857v-73.143h310.857v73.143c0,20.114,15.543,34.743,37.486,36.571
		L346.429,492.714z M17.286,383v54.857c0,20.114,15.543,34.743,37.486,36.571H306.2c-9.143-9.143-13.714-21.943-13.714-36.571V383
		H17.286z"/>
	<path d="M346.429,492.714c-32.914-2.743-54.857-24.686-54.857-54.857V383h-192V72.143c0-30.171,24.686-54.857,54.857-54.857
		h301.714v17.371l-8.229,0.914c-18.286,1.829-37.486,13.714-37.486,36.571v356.571C410.429,464.371,382.086,492.714,346.429,492.714
		z M117.857,364.714h192v73.143c0,20.114,15.543,34.743,37.486,36.571c24.686,0,44.8-20.114,44.8-45.714V72.143
		c0-14.629,5.486-27.429,14.629-36.571H154.429c-20.114,0-36.571,16.457-36.571,36.571V364.714z"/>
	<path d="M255,117.857h-91.429c-5.486,0-9.143-3.657-9.143-9.143c0-5.486,3.657-9.143,9.143-9.143H255
		c5.486,0,9.143,3.657,9.143,9.143C264.143,114.2,260.486,117.857,255,117.857z"/>
	<path d="M346.429,282.429H163.571c-5.486,0-9.143-3.657-9.143-9.143s3.657-9.143,9.143-9.143h182.857
		c5.486,0,9.143,3.657,9.143,9.143S351.914,282.429,346.429,282.429z"/>
	<path d="M172.714,337.286h-9.143c-5.486,0-9.143-3.657-9.143-9.143c0-5.486,3.657-9.143,9.143-9.143h9.143
		c5.486,0,9.143,3.657,9.143,9.143C181.857,333.629,178.2,337.286,172.714,337.286z"/>
	<path d="M181.857,337.286h-18.286c-5.486,0-9.143-3.657-9.143-9.143c0-5.486,3.657-9.143,9.143-9.143h18.286
		c5.486,0,9.143,3.657,9.143,9.143C191,333.629,187.343,337.286,181.857,337.286z"/>
	<path d="M264.143,337.286h-27.429c-5.486,0-9.143-3.657-9.143-9.143c0-5.486,3.657-9.143,9.143-9.143h27.429
		c5.486,0,9.143,3.657,9.143,9.143C273.286,333.629,269.629,337.286,264.143,337.286z"/>
	<path d="M172.714,227.571h-9.143c-5.486,0-9.143-3.657-9.143-9.143c0-5.486,3.657-9.143,9.143-9.143h9.143
		c5.486,0,9.143,3.657,9.143,9.143C181.857,223.914,178.2,227.571,172.714,227.571z"/>
	<path d="M191,227.571h-27.429c-5.486,0-9.143-3.657-9.143-9.143c0-5.486,3.657-9.143,9.143-9.143H191
		c5.486,0,9.143,3.657,9.143,9.143C200.143,223.914,196.486,227.571,191,227.571z"/>
	<path d="M346.429,227.571H245.857c-5.486,0-9.143-3.657-9.143-9.143c0-5.486,3.657-9.143,9.143-9.143h100.571
		c5.486,0,9.143,3.657,9.143,9.143C355.571,223.914,351.914,227.571,346.429,227.571z"/>
	<path d="M172.714,172.714h-9.143c-5.486,0-9.143-3.657-9.143-9.143s3.657-9.143,9.143-9.143h9.143c5.486,0,9.143,3.657,9.143,9.143
		S178.2,172.714,172.714,172.714z"/>
	<path d="M236.714,172.714h-73.143c-5.486,0-9.143-3.657-9.143-9.143s3.657-9.143,9.143-9.143h73.143
		c5.486,0,9.143,3.657,9.143,9.143S242.2,172.714,236.714,172.714z"/>
	<path d="M346.429,172.714h-54.857c-5.486,0-9.143-3.657-9.143-9.143s3.657-9.143,9.143-9.143h54.857
		c5.486,0,9.143,3.657,9.143,9.143S351.914,172.714,346.429,172.714z"/>
</g>
</svg>